<svg xmlns="http://www.w3.org/2000/svg" viewBox="0 0 64 64" id="ev-charger">
  <path fill="#7fcac9" d="M38.692,44.692l-.4-2.4,8-8a3.7,3.7,0,0,1,5.414,0l1,1a1.147,1.147,0,0,0,1.584,0,1.12,1.12,0,0,0,0-1.586l-6-6,1.414-1.414,6,6a3.12,3.12,0,0,1,0,4.413,3.2,3.2,0,0,1-4.414,0l-1-1a1.714,1.714,0,0,0-2.586,0Z"></path>
  <rect width="32" height="6" x="10" y="55" fill="#5f79ba"></rect>
  <path fill="#5f79ba" d="M16,3H36a3,3,0,0,1,3,3V9a0,0,0,0,1,0,0H13a0,0,0,0,1,0,0V6A3,3,0,0,1,16,3Z"></path>
  <rect width="26" height="46" x="13" y="9" fill="#8ec13f"></rect>
  <polygon fill="#5f79ba" points="39 19 44 19 51 26 48 29 45 26 42 29 39 29 39 19"></polygon>
  <polygon fill="#fcf05a" points="25 31 32 31 27 39 32 39 24 50 25 42 20 42 25 31"></polygon>
  <rect width="18" height="10" x="17" y="17" fill="#f4f4e6"></rect>
  <rect width="2" height="2" x="16" y="12" fill="#fcf05a"></rect>
  <rect width="2" height="2" x="20" y="12" fill="#fcf05a"></rect>
</svg>
