<svg xmlns="http://www.w3.org/2000/svg" viewBox="0 0 512 512" id="ev-station">
  <g>
    <path fill="#d94736" d="M312 472v16H24v-16a16 16 0 0 1 16-16h256a16 16 0 0 1 16 16Z"></path>
    <path fill="#b82514" d="M312 472v16H24v-16a16 16 0 0 1 16-16h8v16Z"></path>
    <path fill="#0e7dde" d="M312 280v16a16 16 0 0 1-16 16h-16v-64h16a16 16 0 0 1 16 16Z"></path>
    <path fill="#3896d2" d="M488 72v80a64 64 0 0 1-128 0V72h128Z"></path>
    <path fill="#0e7dde" d="M476.47 188.66A64.007 64.007 0 0 1 360 152V72h32v56a64.056 64.056 0 0 0 84.47 60.66Z"></path>
    <path fill="#3896d2" d="M280 312v144H56V56a32 32 0 0 1 32-32h160a32 32 0 0 1 32 32v256Zm-32-128v-80a16 16 0 0 0-16-16H104a16 16 0 0 0-16 16v80a16 16 0 0 0 16 16h128a16 16 0 0 0 16-16Z"></path>
    <path fill="#0e7dde" d="M104 408V200a16 16 0 0 1-16-16v-80a16 16 0 0 1 16-16V24H88a32 32 0 0 0-32 32v400h224v-48Z"></path>
    <rect width="160" height="112" x="88" y="88" fill="#b4d7f0" rx="16"></rect>
    <path fill="#82c2f0" d="M248 176v8a16 16 0 0 1-16 16H104a16 16 0 0 1-16-16v-80a16 16 0 0 1 16-16h24v72a16 16 0 0 0 16 16Z"></path>
    <path fill="#0e7dde" d="M128 48h80v16h-80z"></path>
    <path fill="#fff" d="m141.657 381.657-11.314-11.314L180.687 320H136a8 8 0 0 1-5.657-13.657l64-64 11.314 11.314L155.313 304H200a8 8 0 0 1 5.657 13.657Z"></path>
    <path fill="#062d42" d="M392 496a40.045 40.045 0 0 1-40-40V312a24.028 24.028 0 0 0-24-24h-16v-16h16a40.045 40.045 0 0 1 40 40v144a24 24 0 0 0 48 0V216h16v240a40.045 40.045 0 0 1-40 40ZM384 16h16v56h-16zM448 16h16v56h-16z"></path>
    <path fill="#fff" d="m413.657 173.657-11.314-11.314L420.686 144H408a8 8 0 0 1-5.657-13.657l32-32 11.314 11.314L427.314 128H440a8 8 0 0 1 5.657 13.657Z"></path>
  </g>
</svg>
